<?xml version="1.0" standalone="no"?>
<!DOCTYPE svg PUBLIC "-//W3C//DTD SVG 20010904//EN"
 "http://www.w3.org/TR/2001/REC-SVG-20010904/DTD/svg10.dtd">
<svg version="1.0" xmlns="http://www.w3.org/2000/svg"
 width="378.000000pt" height="378.000000pt" viewBox="0 0 378.000000 378.000000"
 preserveAspectRatio="xMidYMid meet">
<metadata>
Created by potrace 1.14, written by Peter Selinger 2001-2017
</metadata>
<g transform="translate(0.000000,378.000000) scale(0.100000,-0.100000)"
fill="#000000" stroke="none">
<path d="M2750 3489 c-47 -10 -81 -53 -78 -99 4 -74 51 -121 112 -114 34 3 82
37 79 53 -2 6 1 11 6 11 14 0 4 87 -13 111 -22 32 -64 47 -106 38z"/>
<path d="M3017 3429 c-13 -8 -15 -14 -7 -30 13 -23 33 -25 50 -4 9 10 9 15 1
15 -6 0 -10 5 -8 11 3 16 -15 20 -36 8z"/>
<path d="M1340 3408 c-47 -4 -107 -8 -135 -8 -27 -1 -66 -5 -85 -10 -19 -5
-39 -9 -44 -9 -5 0 -12 -3 -15 -8 -14 -20 -86 -45 -144 -49 -76 -6 -137 -22
-137 -34 0 -6 -6 -10 -13 -10 -14 0 -97 -72 -97 -83 0 -3 -12 -26 -27 -50 -19
-32 -42 -53 -80 -73 -30 -15 -66 -40 -81 -54 -49 -48 -92 -99 -92 -110 0 -5
-4 -10 -10 -10 -5 0 -10 -6 -10 -14 0 -8 -7 -22 -16 -30 -8 -9 -13 -16 -9 -16
3 0 -1 -13 -9 -29 -9 -16 -12 -31 -9 -35 4 -3 2 -6 -3 -6 -5 0 -9 -23 -9 -50
-1 -28 4 -50 9 -50 5 0 7 -3 4 -6 -4 -3 -3 -18 2 -33 5 -18 3 -39 -6 -60 -19
-46 -18 -74 6 -114 21 -35 21 -56 1 -124 -5 -17 -7 -34 -3 -37 3 -3 1 -6 -4
-6 -5 0 -10 -12 -10 -27 -1 -16 -5 -50 -9 -78 -4 -27 -8 -66 -9 -86 -2 -19 -6
-41 -10 -47 -4 -7 -2 -12 6 -12 9 0 9 -3 2 -8 -18 -12 -5 -268 21 -397 2 -11
4 -20 5 -20 1 0 4 -13 6 -29 3 -16 9 -37 15 -47 11 -22 12 -32 0 -25 -5 3 0
-11 10 -32 11 -20 25 -54 31 -74 6 -21 15 -38 20 -38 4 0 8 -9 8 -20 0 -11 4
-20 8 -20 5 0 15 -18 22 -40 7 -22 16 -40 20 -40 3 0 21 -29 38 -64 19 -37 41
-67 52 -71 18 -6 24 -17 21 -37 0 -5 4 -8 10 -8 7 0 10 -12 7 -30 -3 -16 -2
-30 2 -30 9 0 8 -80 -2 -81 -4 -1 -16 -2 -25 -2 -22 -2 -33 -15 -33 -41 0 -13
5 -17 19 -13 30 7 41 -6 45 -54 5 -61 16 -100 27 -93 5 3 9 -1 10 -8 0 -7 5
-2 10 11 5 14 11 65 12 113 1 48 3 88 5 88 15 0 61 -33 57 -40 -4 -6 -2 -10 3
-10 6 0 10 -56 10 -130 0 -123 7 -160 32 -160 16 0 25 50 24 127 -1 86 10 107
40 78 7 -8 15 -12 18 -10 9 9 6 -40 -3 -51 -7 -8 -7 -14 0 -18 10 -6 8 -37 -4
-56 -3 -6 -2 -10 3 -10 5 0 9 -22 8 -48 0 -26 3 -53 7 -59 4 -7 3 -14 -3 -18
-7 -4 -7 -12 0 -24 5 -10 6 -21 3 -25 -3 -3 1 -6 10 -6 21 0 26 9 32 60 3 24
8 47 11 51 3 5 2 9 -3 9 -4 0 -9 32 -10 70 -1 66 -1 69 18 60 10 -6 19 -7 19
-3 0 4 5 2 11 -4 13 -13 19 -263 7 -263 -4 0 -5 -7 -1 -16 3 -9 0 -20 -7 -24
-7 -4 -9 -13 -5 -19 5 -9 10 -9 21 0 20 17 45 79 37 92 -3 6 -1 7 5 3 8 -5 11
17 9 78 -3 90 2 100 40 83 21 -9 22 -15 20 -118 -1 -60 2 -109 6 -109 5 0 6
-4 3 -9 -8 -12 13 -19 36 -13 13 3 15 9 8 26 -4 13 -4 29 1 39 7 12 6 17 -2
17 -8 0 -8 4 1 15 9 11 9 15 1 15 -8 0 -9 6 -2 18 6 10 6 24 0 34 -6 10 -4 20
5 27 11 9 26 6 67 -14 29 -14 61 -25 71 -25 10 0 18 -5 18 -11 0 -6 7 -9 15
-5 8 3 15 1 15 -4 0 -6 3 -9 8 -8 4 1 45 -10 93 -25 47 -15 94 -27 105 -27 12
0 24 -3 28 -7 4 -5 11 -8 14 -9 24 -2 150 -17 161 -19 8 -1 26 -24 40 -51 26
-51 58 -85 89 -92 37 -10 200 -1 252 14 30 9 71 27 90 41 57 42 163 157 153
167 -4 3 -1 6 6 6 7 0 9 5 6 10 -3 6 -1 10 5 10 6 0 8 5 5 10 -3 6 -1 10 6 10
22 0 292 173 331 212 24 24 30 23 50 -12 9 -17 29 -35 44 -40 29 -11 94 -3 94
11 0 5 6 9 13 9 15 0 54 41 77 80 30 53 114 225 112 233 -1 4 3 7 10 7 6 0 8
3 5 6 -3 4 -2 15 4 26 14 25 21 56 23 93 0 17 6 33 11 37 7 5 6 8 0 8 -6 0
-12 10 -12 22 -2 24 -23 69 -37 79 -4 4 -1 18 9 32 9 14 17 30 17 34 0 4 4 18
9 31 5 13 9 27 9 32 0 5 5 21 12 37 12 30 16 45 22 83 2 14 6 32 9 40 20 53
41 330 24 330 -4 0 -5 6 -1 12 5 7 7 29 5 48 -2 19 -5 55 -6 80 -2 25 -4 45
-5 45 -1 0 -4 20 -6 45 -3 24 -9 49 -14 54 -15 15 -13 59 3 50 9 -6 9 -5 0 7
-6 8 -10 30 -9 49 2 28 -4 41 -31 68 -18 17 -31 32 -28 32 3 0 0 10 -7 23 -7
12 -13 24 -13 27 -3 21 -31 80 -37 80 -4 0 -8 6 -8 13 0 6 -11 32 -25 57 -13
25 -27 53 -31 63 -3 9 -10 17 -15 17 -5 0 -9 5 -9 10 0 13 -53 89 -87 125 -7
8 -13 16 -13 19 0 20 -262 256 -285 256 -3 0 -13 6 -20 13 -24 20 -39 31 -70
48 -17 9 -55 30 -85 47 -63 34 -171 81 -215 93 -16 4 -48 13 -70 19 -65 17
-136 31 -190 38 -67 8 -329 9 -386 0 -30 -4 -55 -2 -70 6 -41 21 -52 22 -139
14z"/>
<path d="M3190 3330 c-8 -5 -11 -10 -7 -10 4 0 3 -8 -2 -18 -7 -14 -5 -21 9
-29 21 -14 56 -7 64 13 6 16 -3 44 -14 44 -5 0 -14 2 -22 5 -7 3 -20 0 -28 -5z"/>
<path d="M2980 3249 c0 -18 2 -19 15 -9 8 7 15 16 15 21 0 5 -7 9 -15 9 -9 0
-15 -9 -15 -21z"/>
<path d="M3055 3156 c-33 -19 -43 -31 -58 -77 -13 -39 -13 -48 -1 -79 24 -57
53 -74 126 -73 32 1 88 38 88 59 0 8 3 14 8 14 11 0 8 72 -5 95 -17 30 -48 55
-74 60 -13 3 -33 7 -44 9 -11 2 -29 -1 -40 -8z"/>
<path d="M2836 3104 c-8 -20 -1 -30 24 -37 15 -4 23 1 29 16 5 12 7 25 4 30
-8 13 -51 7 -57 -9z"/>
<path d="M3295 2768 c-44 -24 -69 -63 -66 -103 5 -75 43 -115 106 -115 83 0
130 79 96 165 -17 44 -96 75 -136 53z"/>
<path d="M3360 2329 c0 -5 -7 -9 -14 -9 -12 0 -13 -6 -5 -29 13 -36 41 -45 68
-19 17 15 19 23 11 38 -6 11 -14 20 -18 21 -4 0 -15 2 -24 4 -10 2 -18 -1 -18
-6z"/>
<path d="M6 2293 c-13 -13 -6 -84 9 -89 46 -18 94 38 61 71 -15 16 -61 27 -70
18z"/>
<path d="M55 1948 c-27 -15 -33 -27 -28 -49 6 -23 15 -29 47 -35 45 -8 71 54
34 81 -26 18 -27 18 -53 3z"/>
<path d="M3340 1765 c-17 -21 -3 -52 26 -58 20 -3 28 1 36 19 19 42 -32 75
-62 39z"/>
<path d="M1 1734 c0 -11 3 -14 6 -6 3 7 2 16 -1 19 -3 4 -6 -2 -5 -13z"/>
<path d="M84 1556 c-55 -24 -73 -111 -35 -164 23 -34 68 -62 96 -62 34 0 84
32 99 63 27 58 8 131 -43 161 -24 15 -85 16 -117 2z"/>
<path d="M3300 1407 c-14 -8 -24 -19 -22 -25 1 -7 -2 -12 -7 -12 -17 0 -7 -41
16 -66 15 -16 30 -23 45 -20 13 3 28 5 33 5 12 1 35 36 40 62 3 14 -8 27 -35
44 -46 29 -39 28 -70 12z"/>
<path d="M330 1082 c-19 -6 -34 -30 -37 -62 -7 -53 93 -64 116 -13 9 20 9 29
-1 42 -25 31 -51 42 -78 33z"/>
<path d="M134 1029 c-7 -11 12 -29 31 -29 6 0 11 9 12 20 2 22 -30 29 -43 9z"/>
<path d="M130 805 c0 -8 -4 -15 -10 -15 -6 0 -5 -10 2 -25 6 -13 14 -22 19
-20 4 3 9 0 11 -7 3 -8 12 -4 26 10 22 22 21 49 -2 64 -19 13 -46 9 -46 -7z"/>
<path d="M337 786 c-38 -32 -48 -64 -38 -128 2 -16 53 -58 76 -64 35 -9 90 3
107 24 26 29 44 112 25 112 -5 0 -7 5 -5 12 7 19 -40 57 -76 62 -48 7 -63 4
-89 -18z"/>
<path d="M113 567 c-29 -13 -29 -32 -1 -51 26 -18 58 -5 58 24 0 26 -29 40
-57 27z"/>
<path d="M599 511 c-60 -49 1 -143 70 -108 47 24 45 108 -3 121 -33 9 -42 7
-67 -13z"/>
<path d="M396 373 c-6 -15 8 -32 25 -33 13 0 17 28 6 39 -15 15 -24 14 -31 -6z"/>
</g>
</svg>
